<svg width="48" height="50" viewBox="0 0 48 50" fill="none" xmlns="http://www.w3.org/2000/svg">
<path id="pointone" d="M6 3.5C6 1.567 7.567 0 9.5 0V0C11.433 0 13 1.567 13 3.5V46.5C13 48.433 11.433 50 9.5 50V50C7.567 50 6 48.433 6 46.5V3.5Z" fill="black"/>
<path id="pointfive" d="M41.9298 5.20018C43.6121 3.80096 45.8767 4.19478 46.988 6.0798V6.0798C48.0992 7.96482 47.6362 10.6272 45.9538 12.0264L6.07028 45.1978C4.38793 46.5971 2.12329 46.2032 1.01207 44.3182V44.3182C-0.0991506 42.4332 0.363841 39.7708 2.04619 38.3716L41.9298 5.20018Z" fill="black"/>
<path id="pointfour" d="M35 3.5C35 1.567 36.567 0 38.5 0V0C40.433 0 42 1.567 42 3.5V46.5C42 48.433 40.433 50 38.5 50V50C36.567 50 35 48.433 35 46.5V3.5Z" fill="black"/>
<path id="pointthree" d="M25 3.5C25 1.567 26.567 0 28.5 0V0C30.433 0 32 1.567 32 3.5V46.5C32 48.433 30.433 50 28.5 50V50C26.567 50 25 48.433 25 46.5V3.5Z" fill="black"/>
<path id="pointtwo" d="M15 3.5C15 1.567 16.567 0 18.5 0V0C20.433 0 22 1.567 22 3.5V46.5C22 48.433 20.433 50 18.5 50V50C16.567 50 15 48.433 15 46.5V3.5Z" fill="black"/>
</svg>
